# xmcd
#
# Track frame offsets:
#	150
#	9660
#	22182
#	32158
#	43202
#	55957
#	66592
#	76454
#	88389
#	98774
#	112799
#
# Disc length: 1647 seconds
#
# Revision: 1
# Processed by: cddbd v1.5.1PL0 Copyright (c) Steve Scherf et al.
# Submitted via: audiograbber 1.80
#
DISCID=95066d0b
DTITLE=Tom T. Hall - The Magnificent Music Machine
DYEAR=1900
DGENRE=
TTITLE0=Fox on The Run
TTITLE1=Paradise
TTITLE2=Mama's Got the Catfish Blues
TTITLE3=Bluegrass Break-Up
TTITLE4=I Don't Want My Goden Slippers
TTITLE5=Molly and Tenbrooks
TTITLE6=Fastest Rabbit Dog in Carter County Today
TTITLE7=I'll Never Do Better Than You
TTITLE8=Magnificent Music Machine
TTITLE9=Rank Stranger
TTITLE10=Bluegrass Festival in the Sky
EXTD=
EXTT0=
EXTT1=
EXTT2=
EXTT3=
EXTT4=
EXTT5=
EXTT6=
EXTT7=
EXTT8=
EXTT9=
EXTT10=
PLAYORDER=
